<svg xmlns="http://www.w3.org/2000/svg" width="60" height="68.219" viewBox="0 0 60 68.219">
  <path id="Icon_map-electronics-store" data-name="Icon map-electronics-store" d="M32.727,69.232A30,30,0,0,1,17.208,13.555a4.11,4.11,0,1,1,4.259,7.031,21.777,21.777,0,1,0,22.023-.3,4.109,4.109,0,1,1,4.067-7.142A30,30,0,0,1,32.727,69.232Zm-.312-30.411c-2.269,0-5.017-1.84-5.017-4.11V5.123c0-2.269,2.748-4.11,5.017-4.11s5.017,1.84,5.017,4.11V34.712c0,2.269-2.748,4.11-5.017,4.11Z" transform="translate(-2.728 -1.013)" fill="#6aa6a6"/>
</svg>
