<svg xmlns="http://www.w3.org/2000/svg" width="66.335" height="47.143" viewBox="0 0 66.335 47.143">
  <g id="Icon_ionic-ios-headset" data-name="Icon ionic-ios-headset" transform="translate(27.732 -8.705)">
    <path id="Path_2" data-name="Path 2" d="M18,8.7a6.08,6.08,0,0,0-4.493,2,5.52,5.52,0,0,0-1.835,4.191.93.93,0,1,0,1.856,0,4,4,0,0,1,1.336-3.059,4.837,4.837,0,0,1,6.286,0,4.007,4.007,0,0,1,1.336,3.059.93.93,0,1,0,1.856,0A5.544,5.544,0,0,0,22.507,10.7,6.107,6.107,0,0,0,18,8.7Z" transform="translate(14.261)" fill="#6aa6a6"/>
    <path id="Path_3" data-name="Path 3" d="M59.183,32.263A10.354,10.354,0,0,0,51.8,29.2H50.732a.537.537,0,0,1-.536-.536V23.6A17.946,17.946,0,0,0,14.3,23.585v5.076a.537.537,0,0,1-.536.536H12.7A10.471,10.471,0,0,0,2.25,39.643v1.58A10.494,10.494,0,0,0,12.7,51.7h.75a2.151,2.151,0,0,1,1.46.549,1.866,1.866,0,0,0,3.147-1.379V23.585a14.2,14.2,0,0,1,28.393,0V50.879a1.866,1.866,0,0,0,3.147,1.379,2.151,2.151,0,0,1,1.46-.549h.75A10.494,10.494,0,0,0,62.25,41.237V39.643A10.354,10.354,0,0,0,59.183,32.263Z" transform="translate(-29.982 3.08)" fill="#6aa6a6"/>
  </g>
</svg>
