<svg xmlns="http://www.w3.org/2000/svg" width="60" height="80.009" viewBox="0 0 60 80.009">
  <path id="Icon_awesome-baby" data-name="Icon awesome-baby" d="M30,25A12.5,12.5,0,1,0,17.5,12.5,12.5,12.5,0,0,0,30,25ZM21.656,63.882l4-5-9.61-8-7.173,8.97a6.262,6.262,0,0,0-.125,7.657l7.5,10a6.251,6.251,0,0,0,10-7.5Zm22.3-13-9.61,8,4,5-4.594,6.126a6.251,6.251,0,0,0,10,7.5l7.5-10a6.262,6.262,0,0,0-.125-7.657l-7.173-8.97ZM58.863,22.659a6.258,6.258,0,0,0-8.7-1.531l-6.344,4.454a24.171,24.171,0,0,1-27.628,0L9.842,21.143a6.247,6.247,0,0,0-7.188,10.22L9,35.817a37.079,37.079,0,0,0,8.5,4.36v4.829h25V40.192a37.079,37.079,0,0,0,8.5-4.36l6.344-4.454A6.262,6.262,0,0,0,58.863,22.659Z" transform="translate(-0.003)" fill="#6aa6a6"/>
</svg>
