<svg xmlns="http://www.w3.org/2000/svg" width="60" height="47.994" viewBox="0 0 60 47.994">
  <path id="Icon_awesome-tshirt" data-name="Icon awesome-tshirt" d="M59.169,9.046,40.918,0C39.034,2.606,34.862,4.424,30,4.424S20.961,2.606,19.077,0L.826,9.046a1.511,1.511,0,0,0-.675,2.015L5.513,21.794a1.511,1.511,0,0,0,2.015.675l5.306-2.6a1.5,1.5,0,0,1,2.156,1.35V44.994a3,3,0,0,0,3,3h24a3,3,0,0,0,3-3V21.213a1.5,1.5,0,0,1,2.156-1.35l5.306,2.6a1.5,1.5,0,0,0,2.015-.675l5.371-10.724a1.5,1.5,0,0,0-.666-2.015Z" transform="translate(0.004)" fill="#6aa6a6"/>
</svg>
